Color
C

Release Date
1979


Genre
Social  /  Offbeat  /  Period 


Producer
Shashi Kapoor



Director
Shyam Benegal


Star Cast
Shashi Kapoor...... Javed Khan 
Jennifer Kendal...... Mrs. Mariam Labadoor (Ruth's Mother)
Nafisa Ali...... Ruth Labadoor 
Ismat
Naseruddin Shah...... Javed's Brother-in-law 
Shabana Azmi...... Firdaus (Javed's Wife)
Jalal Aga...... Kader Khan
Tom Alter...... Priest
Benjamin Gilani...... Rashid Khan
Geoffrey Kendal
Kulbhushan Kharbanda...... Lalal Ramjimal
Deepti Naval...... Rashid's wife
Pearl Padamsee...... Bitter woman
Sushma Seth...... Javed's chachi
Karan Kapoor
Kunal Shashi Kapoor
Sanjana Kapoor




Lyricist
Amir Khusro
Yogesh


Music Director
Vanraj Bhatia
J P Kaushik



Cinematography
Govind Nihalani


Sound
Hitendra Ghosh


Dialogue
Satyadev Dube
Ismat Chugtai


Story / Writer
Shyam Benegal


Name : Junoon 1979 DvDrip 1.36GB ~ A Shyam Benegal Film ~ [RdY]

Format : AVI
 Format/Info : Audio Video Interleave
 File size : 1.36 GiB
 Duration : 2h 20mn
 Overall bit rate : 1 388 Kbps
 Writing application : VirtualDubMod 1.5.10.2 (build 2542/release)
 Writing library : VirtualDubMod build 2542/release
 
Video
 ID : 0
 Format : MPEG-4 Visual
 Format profile : AdvancedSimple@L5
 Format settings, BVOP : Yes
 Format settings, QPel : Yes
 Format settings, GMC : No warppoints
 Format settings, Matrix : Default (MPEG)
 Codec ID : XVID
 Codec ID/Hint : XviD
 Duration : 2h 20mn
 Bit rate : 1 187 Kbps
 Width : 640 pixels
 Height : 464 pixels
 Display aspect ratio : 1.379
 Frame rate : 23.976 fps
 Resolution : 24 bits
 Colorimetry : 4.2.0
 Scan type : Progressive
 Bits/(Pixel*Frame) : 0.167
 Stream size : 1.17 GiB (85%)
 Writing library : XviD 1.2.1 (UTC 2008-12-04)
 
Audio
 ID : 1
 Format : AC-3
 Format/Info : Audio Coding 3
 Codec ID : 2000
 Duration : 2h 20mn
 Bit rate mode : Constant
 Bit rate : 192 Kbps
 Channel(s) : 6 channels
 Channel positions : Front: L C R, Surround: L R, LFE
 Sampling rate : 48.0 KHz
 Stream size : 193 MiB (14%)
 Alignment : Split accross interleaves
 Interleave, duration : 42 ms (1.00 video frame)
 Interleave, preload duration : 500 ms
 
 
http://desibbrg.org/images/86226588984810073541.jpg 
http://desibbrg.org/images/51958327095607504180.jpg 
http://desibbrg.org/images/23913868912473926060.jpg 
http://desibbrg.org/images/85898604255883166790.jpg
